<svg width="36" height="36" viewBox="0 0 36 36" fill="none" xmlns="http://www.w3.org/2000/svg">
  <path d="M15 31C15 33.209 14.209 35 12 35H5C1 35 1 21 5 21H12C14.209 21 15 22.791 15 25V31Z" fill="#BE1931"/>
  <path d="M34 33H33V23H34C34.553 23 35 22.553 35 22C35 21.447 34.553 21 34 21H10C6 21 6 35 10 35H34C34.553 35 35 34.553 35 34C35 33.447 34.553 33 34 33Z" fill="#DD2E44"/>
  <path d="M34.172 33H11C9 33 9 23 11 23H34.172C35.276 23 35.276 33 34.172 33Z" fill="#CCD6DD"/>
  <path d="M11.5 25H34.85C34.715 23.825 34.49 23 34.172 23H11C9.349 23 9.062 29.808 10.137 32.188C9.745 29.229 10.199 25 11.5 25Z" fill="#99AAB5"/>
  <path d="M12 8C12 10.209 10.209 12 8 12H4C0 12 0 1 4 1H8C10.209 1 12 2.791 12 5V8Z" fill="#57A927"/>
  <path d="M31 10H30V3H31C31.553 3 32 2.553 32 2C32 1.447 31.553 1 31 1H7C3 1 3 12 7 12H31C31.553 12 32 11.553 32 11C32 10.447 31.553 10 31 10Z" fill="#68CB2E"/>
  <path d="M31.172 10H8C6 10 6 3 8 3H31.172C32.276 3 32.276 10 31.172 10Z" fill="#CCD6DD"/>
  <path d="M8 5H31.925C31.811 3.875 31.561 3 31.172 3H8C6.807 3 6.331 5.489 6.562 7.5C6.718 6.142 7.193 5 8 5Z" fill="#99AAB5"/>
  <path d="M20 17C20 19.209 18.209 21 16 21H6C2 21 2 12 6 12H16C18.209 12 20 13.791 20 16V17Z" fill="#F4900C"/>
  <path d="M35 19H34V14H35C35.553 14 36 13.553 36 13C36 12.447 35.553 12 35 12H15C11 12 11 21 15 21H35C35.553 21 36 20.553 36 20C36 19.447 35.553 19 35 19Z" fill="#FFAC33"/>
  <path d="M35.172 19H16C14 19 14 14 16 14H35.172C36.276 14 36.276 19 35.172 19Z" fill="#CCD6DD"/>
  <path d="M16 16H35.984C35.919 14.938 35.65 14 35.172 14H16C14.726 14 14.267 16.027 14.617 17.5C14.815 16.661 15.274 16 16 16Z" fill="#99AAB5"/>
</svg>
