<svg width="802" height="15" viewBox="0 0 802 15" fill="none" xmlns="http://www.w3.org/2000/svg">
<path id="Arrow 2" d="M101 8.00003L101.015 7.50025L101 8.00003ZM0.941657 4.50345C0.667401 4.53567 0.471194 4.78412 0.503416 5.05838C0.535637 5.33263 0.784086 5.52884 1.05834 5.49662L0.941657 4.50345ZM51 2.00003L51.0148 1.50025L51 2.00003ZM801.317 8.38656C801.531 8.21139 801.562 7.89633 801.387 7.68286L798.532 4.20412C798.357 3.99065 798.042 3.9596 797.828 4.13477C797.615 4.30994 797.584 4.62499 797.759 4.83847L800.296 7.93068L797.204 10.468C796.991 10.6432 796.96 10.9583 797.135 11.1717C797.31 11.3852 797.625 11.4163 797.838 11.2411L801.317 8.38656ZM5.19492 5.04319C5.46956 5.01436 5.66882 4.76836 5.63999 4.49372C5.61116 4.21909 5.36516 4.01983 5.09052 4.04866L5.19492 5.04319ZM13.418 3.23479C13.143 3.25974 12.9403 3.50291 12.9653 3.77793C12.9902 4.05294 13.2334 4.25565 13.5084 4.2307L13.418 3.23479ZM21.8241 3.53609C22.0994 3.51517 22.3057 3.27499 22.2847 2.99965C22.2638 2.7243 22.0236 2.51805 21.7483 2.53897L21.8241 3.53609ZM30.096 1.97617C29.8203 1.9922 29.6098 2.22867 29.6259 2.50435C29.6419 2.78002 29.8784 2.99051 30.154 2.97448L30.096 1.97617ZM38.49 2.58385C38.766 2.57441 38.9821 2.34303 38.9726 2.06705C38.9632 1.79107 38.7318 1.57499 38.4558 1.58444L38.49 2.58385ZM46.8282 1.43739C46.5521 1.43683 46.3278 1.66023 46.3272 1.93637C46.3266 2.21251 46.55 2.43682 46.8262 2.43739L46.8282 1.43739ZM55.1699 2.69296C55.4455 2.71032 55.683 2.50097 55.7003 2.22537C55.7177 1.94978 55.5083 1.71229 55.2327 1.69493L55.1699 2.69296ZM63.6252 2.5027C63.3513 2.46759 63.1008 2.66116 63.0657 2.93506C63.0305 3.20896 63.2241 3.45947 63.498 3.49458L63.6252 2.5027ZM71.7784 4.76259C72.0505 4.80949 72.3091 4.6269 72.356 4.35477C72.4029 4.08264 72.2203 3.82402 71.9482 3.77712L71.7784 4.76259ZM80.2216 5.23748C79.9495 5.19058 79.6909 5.37316 79.644 5.6453C79.5971 5.91743 79.7797 6.17605 80.0518 6.22295L80.2216 5.23748ZM88.3748 7.49736C88.6487 7.53248 88.8992 7.33891 88.9344 7.06501C88.9695 6.79111 88.7759 6.5406 88.502 6.50548L88.3748 7.49736ZM96.8301 7.30711C96.5545 7.28975 96.317 7.49909 96.2997 7.77469C96.2823 8.05029 96.4917 8.28777 96.7673 8.30513L96.8301 7.30711ZM105.182 8.56304C105.458 8.56316 105.682 8.33939 105.682 8.06325C105.682 7.78711 105.458 7.56316 105.182 7.56304L105.182 8.56304ZM113.502 7.32234C113.226 7.33817 113.015 7.57449 113.031 7.85018C113.047 8.12587 113.283 8.33652 113.559 8.32069L113.502 7.32234ZM121.904 7.64731C122.179 7.61996 122.379 7.37503 122.352 7.10025C122.325 6.82546 122.08 6.62488 121.805 6.65222L121.904 7.64731ZM130.109 5.76942C129.834 5.7986 129.635 6.04486 129.665 6.31946C129.694 6.59405 129.94 6.793 130.215 6.76382L130.109 5.76942ZM138.515 5.98668C138.79 5.96575 138.997 5.72557 138.976 5.45022C138.955 5.17488 138.714 4.96863 138.439 4.98955L138.515 5.98668ZM146.805 4.55517C146.529 4.56244 146.311 4.79212 146.318 5.06817C146.326 5.34421 146.555 5.5621 146.831 5.55482L146.805 4.55517ZM155.17 5.54618C155.446 5.55231 155.674 5.33349 155.681 5.05742C155.687 4.78134 155.468 4.55256 155.192 4.54642L155.17 5.54618ZM163.555 4.91666C163.28 4.89865 163.042 5.10743 163.024 5.38299C163.006 5.65854 163.214 5.89652 163.49 5.91453L163.555 4.91666ZM171.797 6.59395C172.072 6.61991 172.316 6.41809 172.342 6.14317C172.368 5.86825 172.166 5.62434 171.891 5.59838L171.797 6.59395ZM180.203 6.40611C179.928 6.38016 179.684 6.58198 179.658 6.8569C179.632 7.13182 179.834 7.37573 180.109 7.40169L180.203 6.40611ZM188.445 8.0834C188.72 8.10141 188.958 7.89263 188.976 7.61708C188.994 7.34152 188.786 7.10354 188.51 7.08553L188.445 8.0834ZM196.83 7.45389C196.554 7.44775 196.326 7.66658 196.319 7.94265C196.313 8.21872 196.532 8.4475 196.808 8.45364L196.83 7.45389ZM205.192 8.45364C205.468 8.4475 205.687 8.21872 205.681 7.94265C205.674 7.66658 205.446 7.44775 205.17 7.45389L205.192 8.45364ZM213.49 7.08553C213.214 7.10354 213.006 7.34152 213.024 7.61708C213.042 7.89263 213.28 8.10141 213.555 8.0834L213.49 7.08553ZM221.891 7.40169C222.166 7.37573 222.368 7.13182 222.342 6.8569C222.316 6.58198 222.072 6.38016 221.797 6.40611L221.891 7.40169ZM230.109 5.59838C229.834 5.62434 229.632 5.86825 229.658 6.14317C229.684 6.41809 229.928 6.61991 230.203 6.59395L230.109 5.59838ZM238.51 5.91453C238.786 5.89652 238.994 5.65854 238.976 5.38299C238.958 5.10743 238.72 4.89865 238.445 4.91666L238.51 5.91453ZM246.808 4.54642C246.532 4.55256 246.313 4.78134 246.319 5.05742C246.326 5.33349 246.554 5.55231 246.83 5.54617L246.808 4.54642ZM255.17 5.54617C255.446 5.55231 255.674 5.33349 255.681 5.05741C255.687 4.78134 255.468 4.55256 255.192 4.54642L255.17 5.54617ZM263.555 4.91666C263.28 4.89865 263.042 5.10743 263.024 5.38299C263.006 5.65854 263.214 5.89652 263.49 5.91453L263.555 4.91666ZM271.797 6.59395C272.072 6.61991 272.316 6.41809 272.342 6.14317C272.368 5.86825 272.166 5.62434 271.891 5.59838L271.797 6.59395ZM280.203 6.40611C279.928 6.38016 279.684 6.58198 279.658 6.8569C279.632 7.13182 279.834 7.37573 280.109 7.40169L280.203 6.40611ZM288.445 8.0834C288.72 8.10141 288.958 7.89263 288.976 7.61708C288.994 7.34152 288.786 7.10354 288.51 7.08553L288.445 8.0834ZM296.83 7.45389C296.554 7.44775 296.326 7.66658 296.319 7.94265C296.313 8.21872 296.532 8.4475 296.808 8.45364L296.83 7.45389ZM305.192 8.45364C305.468 8.4475 305.687 8.21872 305.681 7.94265C305.674 7.66658 305.446 7.44775 305.17 7.45389L305.192 8.45364ZM313.49 7.08553C313.214 7.10354 313.006 7.34152 313.024 7.61708C313.042 7.89263 313.28 8.10141 313.555 8.0834L313.49 7.08553ZM321.891 7.40169C322.166 7.37573 322.368 7.13182 322.342 6.8569C322.316 6.58198 322.072 6.38016 321.797 6.40612L321.891 7.40169ZM330.109 5.59838C329.834 5.62434 329.632 5.86825 329.658 6.14317C329.684 6.41809 329.928 6.61991 330.203 6.59395L330.109 5.59838ZM338.51 5.91453C338.786 5.89652 338.994 5.65854 338.976 5.38299C338.958 5.10743 338.72 4.89865 338.445 4.91666L338.51 5.91453ZM346.808 4.54642C346.532 4.55256 346.313 4.78134 346.319 5.05742C346.326 5.33349 346.554 5.55231 346.83 5.54618L346.808 4.54642ZM355.17 5.54617C355.446 5.55231 355.674 5.33349 355.681 5.05741C355.687 4.78134 355.468 4.55256 355.192 4.54642L355.17 5.54617ZM363.555 4.91666C363.28 4.89865 363.042 5.10743 363.024 5.38299C363.006 5.65854 363.214 5.89652 363.49 5.91453L363.555 4.91666ZM371.797 6.59395C372.072 6.61991 372.316 6.41809 372.342 6.14317C372.368 5.86825 372.166 5.62434 371.891 5.59838L371.797 6.59395ZM380.203 6.40611C379.928 6.38016 379.684 6.58198 379.658 6.8569C379.632 7.13182 379.834 7.37573 380.109 7.40169L380.203 6.40611ZM388.445 8.0834C388.72 8.10141 388.958 7.89263 388.976 7.61708C388.994 7.34152 388.786 7.10354 388.51 7.08553L388.445 8.0834ZM396.83 7.45389C396.554 7.44775 396.326 7.66658 396.319 7.94265C396.313 8.21872 396.532 8.4475 396.808 8.45364L396.83 7.45389ZM405.192 8.45364C405.468 8.4475 405.687 8.21872 405.681 7.94265C405.674 7.66658 405.446 7.44775 405.17 7.45389L405.192 8.45364ZM413.49 7.08553C413.214 7.10354 413.006 7.34152 413.024 7.61708C413.042 7.89263 413.28 8.10141 413.555 8.0834L413.49 7.08553ZM421.891 7.40169C422.166 7.37573 422.368 7.13182 422.342 6.8569C422.316 6.58198 422.072 6.38016 421.797 6.40612L421.891 7.40169ZM430.109 5.59838C429.834 5.62434 429.632 5.86825 429.658 6.14317C429.684 6.41809 429.928 6.61991 430.203 6.59395L430.109 5.59838ZM438.51 5.91453C438.786 5.89652 438.994 5.65854 438.976 5.38299C438.958 5.10743 438.72 4.89865 438.445 4.91666L438.51 5.91453ZM446.808 4.54642C446.532 4.55256 446.313 4.78134 446.319 5.05742C446.326 5.33349 446.554 5.55231 446.83 5.54618L446.808 4.54642ZM455.17 5.54617C455.446 5.55231 455.674 5.33349 455.681 5.05741C455.687 4.78134 455.468 4.55256 455.192 4.54642L455.17 5.54617ZM463.555 4.91666C463.28 4.89865 463.042 5.10743 463.024 5.38299C463.006 5.65854 463.214 5.89652 463.49 5.91453L463.555 4.91666ZM471.797 6.59395C472.072 6.61991 472.316 6.41809 472.342 6.14317C472.368 5.86825 472.166 5.62434 471.891 5.59838L471.797 6.59395ZM480.203 6.40611C479.928 6.38016 479.684 6.58198 479.658 6.8569C479.632 7.13182 479.834 7.37573 480.109 7.40169L480.203 6.40611ZM488.445 8.0834C488.72 8.10141 488.958 7.89263 488.976 7.61708C488.994 7.34152 488.786 7.10354 488.51 7.08553L488.445 8.0834ZM496.83 7.45389C496.554 7.44775 496.326 7.66658 496.319 7.94265C496.313 8.21872 496.532 8.4475 496.808 8.45364L496.83 7.45389ZM505.192 8.45364C505.468 8.4475 505.687 8.21872 505.681 7.94265C505.674 7.66658 505.446 7.44775 505.17 7.45389L505.192 8.45364ZM513.49 7.08553C513.214 7.10354 513.006 7.34152 513.024 7.61708C513.042 7.89263 513.28 8.10141 513.555 8.0834L513.49 7.08553ZM521.891 7.40169C522.166 7.37573 522.368 7.13182 522.342 6.8569C522.316 6.58198 522.072 6.38016 521.797 6.40612L521.891 7.40169ZM530.109 5.59838C529.834 5.62434 529.632 5.86825 529.658 6.14317C529.684 6.41809 529.928 6.61991 530.203 6.59395L530.109 5.59838ZM538.51 5.91453C538.786 5.89652 538.994 5.65854 538.976 5.38299C538.958 5.10743 538.72 4.89865 538.445 4.91666L538.51 5.91453ZM546.808 4.54642C546.532 4.55256 546.313 4.78134 546.319 5.05742C546.326 5.33349 546.554 5.55231 546.83 5.54618L546.808 4.54642ZM555.17 5.54617C555.446 5.55231 555.674 5.33349 555.681 5.05741C555.687 4.78134 555.468 4.55256 555.192 4.54642L555.17 5.54617ZM563.555 4.91666C563.28 4.89865 563.042 5.10743 563.024 5.38299C563.006 5.65854 563.214 5.89652 563.49 5.91453L563.555 4.91666ZM571.797 6.59395C572.072 6.61991 572.316 6.41809 572.342 6.14317C572.368 5.86825 572.166 5.62434 571.891 5.59838L571.797 6.59395ZM580.203 6.40611C579.928 6.38016 579.684 6.58198 579.658 6.8569C579.632 7.13182 579.834 7.37573 580.109 7.40169L580.203 6.40611ZM588.445 8.0834C588.72 8.10141 588.958 7.89263 588.976 7.61708C588.994 7.34152 588.786 7.10354 588.51 7.08553L588.445 8.0834ZM596.83 7.45389C596.554 7.44775 596.326 7.66658 596.319 7.94265C596.313 8.21872 596.532 8.4475 596.808 8.45364L596.83 7.45389ZM605.192 8.45364C605.468 8.4475 605.687 8.21872 605.681 7.94265C605.674 7.66658 605.446 7.44775 605.17 7.45389L605.192 8.45364ZM613.49 7.08553C613.214 7.10354 613.006 7.34152 613.024 7.61708C613.042 7.89263 613.28 8.10141 613.555 8.0834L613.49 7.08553ZM621.891 7.40169C622.166 7.37573 622.368 7.13182 622.342 6.8569C622.316 6.58198 622.072 6.38016 621.797 6.40612L621.891 7.40169ZM630.109 5.59838C629.834 5.62434 629.632 5.86825 629.658 6.14317C629.684 6.41809 629.928 6.61991 630.203 6.59395L630.109 5.59838ZM638.51 5.91453C638.786 5.89652 638.994 5.65854 638.976 5.38299C638.958 5.10743 638.72 4.89865 638.445 4.91666L638.51 5.91453ZM646.808 4.54642C646.532 4.55256 646.313 4.78134 646.319 5.05742C646.326 5.33349 646.554 5.55231 646.83 5.54618L646.808 4.54642ZM655.17 5.54617C655.446 5.55231 655.674 5.33349 655.681 5.05741C655.687 4.78134 655.468 4.55256 655.192 4.54642L655.17 5.54617ZM663.555 4.91666C663.28 4.89865 663.042 5.10743 663.024 5.38299C663.006 5.65854 663.214 5.89652 663.49 5.91453L663.555 4.91666ZM671.797 6.59395C672.072 6.61991 672.316 6.41809 672.342 6.14317C672.368 5.86825 672.166 5.62434 671.891 5.59838L671.797 6.59395ZM680.203 6.40611C679.928 6.38016 679.684 6.58198 679.658 6.8569C679.632 7.13182 679.834 7.37573 680.109 7.40169L680.203 6.40611ZM688.445 8.0834C688.72 8.10141 688.958 7.89263 688.976 7.61708C688.994 7.34152 688.786 7.10354 688.51 7.08553L688.445 8.0834ZM696.83 7.45389C696.554 7.44775 696.326 7.66658 696.319 7.94265C696.313 8.21872 696.532 8.4475 696.808 8.45364L696.83 7.45389ZM705.192 8.45364C705.468 8.4475 705.687 8.21872 705.681 7.94265C705.674 7.66658 705.446 7.44775 705.17 7.45389L705.192 8.45364ZM713.49 7.08553C713.214 7.10354 713.006 7.34152 713.024 7.61708C713.042 7.89263 713.28 8.10141 713.555 8.0834L713.49 7.08553ZM721.891 7.40169C722.166 7.37573 722.368 7.13182 722.342 6.8569C722.316 6.58198 722.072 6.38016 721.797 6.40612L721.891 7.40169ZM730.109 5.59838C729.834 5.62434 729.632 5.86825 729.658 6.14317C729.684 6.41809 729.928 6.61991 730.203 6.59395L730.109 5.59838ZM738.51 5.91453C738.786 5.89652 738.994 5.65854 738.976 5.38299C738.958 5.10743 738.72 4.89865 738.445 4.91666L738.51 5.91453ZM746.808 4.54642C746.532 4.55256 746.313 4.78134 746.319 5.05742C746.326 5.33349 746.554 5.55231 746.83 5.54618L746.808 4.54642ZM755.162 5.54047C755.438 5.54555 755.666 5.32585 755.671 5.04975C755.677 4.77366 755.457 4.54572 755.181 4.54064L755.162 5.54047ZM763.541 4.80427C763.266 4.79249 763.032 5.0066 763.021 5.28249C763.009 5.55838 763.223 5.79158 763.499 5.80336L763.541 4.80427ZM771.834 6.22983C772.11 6.24602 772.346 6.03567 772.362 5.76C772.378 5.48434 772.168 5.24774 771.892 5.23155L771.834 6.22983ZM780.236 5.77345C779.96 5.75397 779.721 5.96149 779.701 6.23694C779.682 6.51239 779.89 6.75148 780.165 6.77096L780.236 5.77345ZM788.485 7.40131C788.761 7.4235 789.002 7.21835 789.024 6.9431C789.046 6.66785 788.841 6.42673 788.566 6.40455L788.485 7.40131ZM796.897 7.11518C796.622 7.09038 796.379 7.29323 796.354 7.56826C796.329 7.84329 796.532 8.08634 796.807 8.11114L796.897 7.11518ZM1 5.00003C1.05834 5.49662 1.05834 5.49662 1.05835 5.49662C1.05836 5.49662 1.05837 5.49661 1.05839 5.49661C1.05843 5.49661 1.0585 5.4966 1.05858 5.49659C1.05876 5.49657 1.05902 5.49654 1.05939 5.49649C1.06011 5.49641 1.0612 5.49628 1.06267 5.49611C1.0656 5.49577 1.07002 5.49525 1.07591 5.49456C1.0877 5.49318 1.10537 5.49112 1.12882 5.4884C1.17572 5.48295 1.24572 5.47486 1.3379 5.46428C1.52226 5.44313 1.79534 5.41206 2.14983 5.37245C2.85882 5.29322 3.89339 5.17982 5.19492 5.04319L5.09052 4.04866C3.78658 4.18553 2.74979 4.29918 2.03878 4.37863C1.68327 4.41836 1.40921 4.44954 1.22391 4.4708C1.13127 4.48143 1.06081 4.48958 1.01346 4.49508C0.989788 4.49783 0.971891 4.49991 0.959885 4.50131C0.953883 4.50202 0.949353 4.50255 0.94631 4.5029C0.944789 4.50308 0.943639 4.50322 0.942863 4.50331C0.942475 4.50335 0.94218 4.50339 0.941979 4.50341C0.941879 4.50342 0.941802 4.50343 0.941748 4.50344C0.941721 4.50344 0.941699 4.50344 0.941685 4.50345C0.941668 4.50345 0.941657 4.50345 1 5.00003ZM13.5084 4.2307C16.0494 4.00013 18.8601 3.76133 21.8241 3.53609L21.7483 2.53897C18.7788 2.76462 15.9631 3.00384 13.418 3.23479L13.5084 4.2307ZM30.154 2.97448C32.9227 2.81352 35.7278 2.67837 38.49 2.58385L38.4558 1.58444C35.6844 1.67927 32.8712 1.81483 30.096 1.97617L30.154 2.97448ZM46.8262 2.43739C48.2557 2.44031 49.6465 2.4603 50.9852 2.49982L51.0148 1.50025C49.6656 1.46043 48.2656 1.44033 46.8282 1.43739L46.8262 2.43739ZM50.9852 2.49982C52.4262 2.54235 53.8187 2.60786 55.1699 2.69296L55.2327 1.69493C53.8707 1.60915 52.4671 1.54312 51.0148 1.50025L50.9852 2.49982ZM63.498 3.49458C66.3698 3.86276 69.097 4.30049 71.7784 4.76259L71.9482 3.77712C69.2594 3.31374 66.5167 2.87341 63.6252 2.5027L63.498 3.49458ZM80.0518 6.22295C82.7406 6.68633 85.4833 7.12666 88.3748 7.49736L88.502 6.50548C85.6303 6.13731 82.903 5.69958 80.2216 5.23748L80.0518 6.22295ZM96.7673 8.30513C98.1293 8.39092 99.5329 8.45695 100.985 8.49982L101.015 7.50025C99.5738 7.45771 98.1813 7.39221 96.8301 7.30711L96.7673 8.30513ZM100.985 8.49982C102.429 8.54242 103.825 8.56247 105.182 8.56304L105.182 7.56304C103.835 7.56247 102.448 7.54257 101.015 7.50025L100.985 8.49982ZM113.559 8.32069C116.454 8.15449 119.204 7.91597 121.904 7.64731L121.805 6.65222C119.114 6.92004 116.378 7.1572 113.502 7.32234L113.559 8.32069ZM130.215 6.76382C132.905 6.47795 135.64 6.20518 138.515 5.98668L138.439 4.98955C135.549 5.20917 132.803 5.48313 130.109 5.76942L130.215 6.76382ZM146.831 5.55482C148.179 5.51932 149.566 5.50003 151 5.50003V4.50003C149.557 4.50003 148.161 4.51944 146.805 4.55517L146.831 5.55482ZM151 5.50003C152.434 5.50003 153.822 5.51621 155.17 5.54618L155.192 4.54642C153.837 4.51629 152.442 4.50003 151 4.50003V5.50003ZM163.49 5.91453C166.368 6.10264 169.105 6.3398 171.797 6.59395L171.891 5.59838C169.194 5.34376 166.446 5.10564 163.555 4.91666L163.49 5.91453ZM180.109 7.40169C182.806 7.65631 185.554 7.89443 188.445 8.0834L188.51 7.08553C185.632 6.89743 182.895 6.66026 180.203 6.40611L180.109 7.40169ZM196.808 8.45364C198.163 8.48377 199.558 8.50003 201 8.50003V7.50003C199.566 7.50003 198.178 7.48386 196.83 7.45389L196.808 8.45364ZM201 8.50003C202.442 8.50003 203.837 8.48377 205.192 8.45364L205.17 7.45389C203.822 7.48386 202.434 7.50003 201 7.50003V8.50003ZM213.555 8.0834C216.446 7.89443 219.194 7.65631 221.891 7.40169L221.797 6.40611C219.105 6.66026 216.368 6.89743 213.49 7.08553L213.555 8.0834ZM230.203 6.59395C232.895 6.3398 235.632 6.10264 238.51 5.91453L238.445 4.91666C235.554 5.10564 232.806 5.34376 230.109 5.59838L230.203 6.59395ZM246.83 5.54617C248.178 5.51621 249.566 5.50003 251 5.50003V4.50003C249.558 4.50003 248.163 4.51629 246.808 4.54642L246.83 5.54617ZM251 5.50003C252.434 5.50003 253.822 5.51621 255.17 5.54617L255.192 4.54642C253.837 4.51629 252.442 4.50003 251 4.50003V5.50003ZM263.49 5.91453C266.368 6.10264 269.105 6.3398 271.797 6.59395L271.891 5.59838C269.194 5.34376 266.446 5.10564 263.555 4.91666L263.49 5.91453ZM280.109 7.40169C282.806 7.65631 285.554 7.89443 288.445 8.0834L288.51 7.08553C285.632 6.89743 282.895 6.66026 280.203 6.40611L280.109 7.40169ZM296.808 8.45364C298.163 8.48377 299.558 8.50003 301 8.50003V7.50003C299.566 7.50003 298.178 7.48386 296.83 7.45389L296.808 8.45364ZM301 8.50003C302.442 8.50003 303.837 8.48377 305.192 8.45364L305.17 7.45389C303.822 7.48386 302.434 7.50003 301 7.50003V8.50003ZM313.555 8.0834C316.446 7.89443 319.194 7.65631 321.891 7.40169L321.797 6.40612C319.105 6.66026 316.368 6.89743 313.49 7.08553L313.555 8.0834ZM330.203 6.59395C332.895 6.3398 335.632 6.10264 338.51 5.91453L338.445 4.91666C335.554 5.10564 332.806 5.34376 330.109 5.59838L330.203 6.59395ZM346.83 5.54618C348.178 5.51621 349.566 5.50003 351 5.50003V4.50003C349.558 4.50003 348.163 4.51629 346.808 4.54642L346.83 5.54618ZM351 5.50003C352.434 5.50003 353.822 5.51621 355.17 5.54617L355.192 4.54642C353.837 4.51629 352.442 4.50003 351 4.50003V5.50003ZM363.49 5.91453C366.368 6.10264 369.105 6.3398 371.797 6.59395L371.891 5.59838C369.194 5.34376 366.446 5.10564 363.555 4.91666L363.49 5.91453ZM380.109 7.40169C382.806 7.65631 385.554 7.89443 388.445 8.0834L388.51 7.08553C385.632 6.89743 382.895 6.66026 380.203 6.40611L380.109 7.40169ZM396.808 8.45364C398.163 8.48377 399.558 8.50003 401 8.50003V7.50003C399.566 7.50003 398.178 7.48386 396.83 7.45389L396.808 8.45364ZM401 8.50003C402.442 8.50003 403.837 8.48377 405.192 8.45364L405.17 7.45389C403.822 7.48386 402.434 7.50003 401 7.50003V8.50003ZM413.555 8.0834C416.446 7.89443 419.194 7.65631 421.891 7.40169L421.797 6.40612C419.105 6.66026 416.368 6.89743 413.49 7.08553L413.555 8.0834ZM430.203 6.59395C432.895 6.3398 435.632 6.10264 438.51 5.91453L438.445 4.91666C435.554 5.10564 432.806 5.34376 430.109 5.59838L430.203 6.59395ZM446.83 5.54618C448.178 5.51621 449.566 5.50003 451 5.50003V4.50003C449.558 4.50003 448.163 4.51629 446.808 4.54642L446.83 5.54618ZM451 5.50003C452.434 5.50003 453.822 5.51621 455.17 5.54617L455.192 4.54642C453.837 4.51629 452.442 4.50003 451 4.50003V5.50003ZM463.49 5.91453C466.368 6.10264 469.105 6.3398 471.797 6.59395L471.891 5.59838C469.194 5.34376 466.446 5.10564 463.555 4.91666L463.49 5.91453ZM480.109 7.40169C482.806 7.65631 485.554 7.89443 488.445 8.0834L488.51 7.08553C485.632 6.89743 482.895 6.66026 480.203 6.40611L480.109 7.40169ZM496.808 8.45364C498.163 8.48377 499.558 8.50003 501 8.50003V7.50003C499.566 7.50003 498.178 7.48386 496.83 7.45389L496.808 8.45364ZM501 8.50003C502.442 8.50003 503.837 8.48377 505.192 8.45364L505.17 7.45389C503.822 7.48386 502.434 7.50003 501 7.50003V8.50003ZM513.555 8.0834C516.446 7.89443 519.194 7.65631 521.891 7.40169L521.797 6.40612C519.105 6.66026 516.368 6.89743 513.49 7.08553L513.555 8.0834ZM530.203 6.59395C532.895 6.3398 535.632 6.10264 538.51 5.91453L538.445 4.91666C535.554 5.10564 532.806 5.34376 530.109 5.59838L530.203 6.59395ZM546.83 5.54618C548.178 5.51621 549.566 5.50003 551 5.50003V4.50003C549.558 4.50003 548.163 4.51629 546.808 4.54642L546.83 5.54618ZM551 5.50003C552.434 5.50003 553.822 5.51621 555.17 5.54617L555.192 4.54642C553.837 4.51629 552.442 4.50003 551 4.50003V5.50003ZM563.49 5.91453C566.368 6.10264 569.105 6.3398 571.797 6.59395L571.891 5.59838C569.194 5.34376 566.446 5.10564 563.555 4.91666L563.49 5.91453ZM580.109 7.40169C582.806 7.65631 585.554 7.89443 588.445 8.0834L588.51 7.08553C585.632 6.89743 582.895 6.66026 580.203 6.40611L580.109 7.40169ZM596.808 8.45364C598.163 8.48377 599.558 8.50003 601 8.50003V7.50003C599.566 7.50003 598.178 7.48386 596.83 7.45389L596.808 8.45364ZM601 8.50003C602.442 8.50003 603.837 8.48377 605.192 8.45364L605.17 7.45389C603.822 7.48386 602.434 7.50003 601 7.50003V8.50003ZM613.555 8.0834C616.446 7.89443 619.194 7.65631 621.891 7.40169L621.797 6.40612C619.105 6.66026 616.368 6.89743 613.49 7.08553L613.555 8.0834ZM630.203 6.59395C632.895 6.3398 635.632 6.10264 638.51 5.91453L638.445 4.91666C635.554 5.10564 632.806 5.34376 630.109 5.59838L630.203 6.59395ZM646.83 5.54618C648.178 5.51621 649.566 5.50003 651 5.50003V4.50003C649.558 4.50003 648.163 4.51629 646.808 4.54642L646.83 5.54618ZM651 5.50003C652.434 5.50003 653.822 5.51621 655.17 5.54617L655.192 4.54642C653.837 4.51629 652.442 4.50003 651 4.50003V5.50003ZM663.49 5.91453C666.368 6.10264 669.105 6.3398 671.797 6.59395L671.891 5.59838C669.194 5.34376 666.446 5.10564 663.555 4.91666L663.49 5.91453ZM680.109 7.40169C682.806 7.65631 685.554 7.89443 688.445 8.0834L688.51 7.08553C685.632 6.89743 682.895 6.66026 680.203 6.40611L680.109 7.40169ZM696.808 8.45364C698.163 8.48377 699.558 8.50003 701 8.50003V7.50003C699.566 7.50003 698.178 7.48386 696.83 7.45389L696.808 8.45364ZM701 8.50003C702.442 8.50003 703.837 8.48377 705.192 8.45364L705.17 7.45389C703.822 7.48386 702.434 7.50003 701 7.50003V8.50003ZM713.555 8.0834C716.446 7.89443 719.194 7.65631 721.891 7.40169L721.797 6.40612C719.105 6.66026 716.368 6.89743 713.49 7.08553L713.555 8.0834ZM730.203 6.59395C732.895 6.3398 735.632 6.10264 738.51 5.91453L738.445 4.91666C735.554 5.10564 732.806 5.34376 730.109 5.59838L730.203 6.59395ZM746.83 5.54618C748.178 5.51621 749.566 5.50003 751 5.50003V4.50003C749.558 4.50003 748.163 4.51629 746.808 4.54642L746.83 5.54618ZM751 5.50003C752.34 5.50003 753.732 5.51415 755.162 5.54047L755.181 4.54064C753.745 4.51422 752.347 4.50003 751 4.50003V5.50003ZM763.499 5.80336C766.261 5.92128 769.066 6.06727 771.834 6.22983L771.892 5.23155C769.12 5.06873 766.31 4.92246 763.541 4.80427L763.499 5.80336ZM780.165 6.77096C783.131 6.98063 785.943 7.19639 788.485 7.40131L788.566 6.40455C786.02 6.19939 783.205 5.98338 780.236 5.77345L780.165 6.77096ZM796.807 8.11114C798.111 8.22865 799.147 8.3253 799.857 8.39256C800.212 8.42619 800.486 8.45247 800.671 8.47033C800.763 8.47927 800.833 8.4861 800.88 8.49069C800.904 8.49298 800.921 8.49472 800.933 8.49588C800.939 8.49646 800.944 8.4969 800.947 8.49719C800.948 8.49734 800.949 8.49744 800.95 8.49752C800.95 8.49755 800.951 8.49758 800.951 8.4976C800.951 8.49761 800.951 8.49761 800.951 8.49762C800.951 8.49762 800.951 8.49762 800.951 8.49762C800.951 8.49762 800.951 8.49762 801 8.00003C801.049 7.50244 801.049 7.50244 801.049 7.50244C801.049 7.50244 801.049 7.50244 801.049 7.50244C801.049 7.50243 801.049 7.50242 801.049 7.50241C801.049 7.50239 801.048 7.50237 801.048 7.50233C801.047 7.50225 801.046 7.50214 801.044 7.50199C801.041 7.50169 801.037 7.50125 801.031 7.50066C801.019 7.49949 801.001 7.49773 800.977 7.49542C800.93 7.4908 800.86 7.48394 800.767 7.47498C800.581 7.45705 800.307 7.43071 799.951 7.39701C799.24 7.32963 798.202 7.23284 796.897 7.11518L796.807 8.11114ZM101 8.00003L101.03 7.00047L101 8.00003ZM0.883315 4.00686C0.334803 4.07131 -0.0576123 4.56821 0.00683103 5.11672C0.0712744 5.66523 0.568173 6.05765 1.11669 5.9932L0.883315 4.00686ZM51 2.00003L51.0295 1.00047L51 2.00003ZM801.634 8.77309C802.061 8.42275 802.123 7.79264 801.773 7.36569L796.064 0.408216C795.714 -0.0187296 795.084 -0.0808327 794.657 0.269504C794.23 0.619842 794.168 1.24995 794.518 1.6769L799.593 7.86132L793.408 12.9361C792.981 13.2864 792.919 13.9165 793.269 14.3434C793.62 14.7704 794.25 14.8325 794.677 14.4822L801.634 8.77309ZM5.24712 5.54046C5.79639 5.4828 6.19492 4.99079 6.13726 4.44152C6.0796 3.89226 5.58759 3.49373 5.03833 3.55139L5.24712 5.54046ZM13.3728 2.73683C12.8228 2.78674 12.4174 3.27308 12.4673 3.82311C12.5172 4.37313 13.0035 4.77856 13.5536 4.72865L13.3728 2.73683ZM21.8619 4.03466C22.4126 3.99281 22.8251 3.51246 22.7833 2.96176C22.7414 2.41106 22.2611 1.99856 21.7104 2.04041L21.8619 4.03466ZM30.067 1.47701C29.5156 1.50907 29.0946 1.98201 29.1267 2.53337C29.1588 3.08472 29.6317 3.5057 30.1831 3.47364L30.067 1.47701ZM38.5071 3.08356C39.0591 3.06467 39.4912 2.60191 39.4723 2.04995C39.4534 1.49799 38.9907 1.06584 38.4387 1.08473L38.5071 3.08356ZM46.8292 0.937391C46.277 0.936263 45.8283 1.38306 45.8272 1.93535C45.8261 2.48763 46.2729 2.93626 46.8252 2.93739L46.8292 0.937391ZM55.1385 3.19197C55.6896 3.22668 56.1646 2.808 56.1993 2.2568C56.234 1.70561 55.8154 1.23064 55.2642 1.19592L55.1385 3.19197ZM63.6888 2.00676C63.141 1.93653 62.6399 2.32368 62.5697 2.87148C62.4995 3.41928 62.8866 3.92029 63.4344 3.99053L63.6888 2.00676ZM71.6935 5.25533C72.2377 5.34912 72.755 4.98395 72.8488 4.43969C72.9426 3.89543 72.5774 3.37818 72.0331 3.28438L71.6935 5.25533ZM80.3065 4.74474C79.7623 4.65094 79.245 5.01612 79.1512 5.56038C79.0574 6.10464 79.4226 6.62189 79.9669 6.71569L80.3065 4.74474ZM88.3112 7.9933C88.8591 8.06354 89.3601 7.67639 89.4303 7.12859C89.5005 6.58079 89.1134 6.07977 88.5656 6.00954L88.3112 7.9933ZM96.8616 6.8081C96.3104 6.77338 95.8354 7.19207 95.8007 7.74326C95.766 8.29446 96.1846 8.76943 96.7358 8.80414L96.8616 6.8081ZM105.181 9.06304C105.734 9.06327 106.181 8.61575 106.182 8.06346C106.182 7.51118 105.734 7.06327 105.182 7.06304L105.181 9.06304ZM113.473 6.82316C112.922 6.85482 112.5 7.32746 112.532 7.87884C112.564 8.43022 113.036 8.85153 113.588 8.81987L113.473 6.82316ZM121.954 8.14485C122.503 8.09016 122.904 7.6003 122.85 7.05073C122.795 6.50116 122.305 6.09999 121.756 6.15468L121.954 8.14485ZM130.056 5.27222C129.507 5.33058 129.109 5.8231 129.167 6.37229C129.226 6.92148 129.718 7.31938 130.267 7.26102L130.056 5.27222ZM138.553 6.48524C139.104 6.44339 139.516 5.96303 139.474 5.41233C139.432 4.86164 138.952 4.44914 138.401 4.49099L138.553 6.48524ZM146.792 4.05534C146.24 4.06989 145.804 4.52925 145.819 5.08134C145.833 5.63343 146.292 6.0692 146.845 6.05465L146.792 4.05534ZM155.158 6.04605C155.711 6.05833 156.168 5.62068 156.18 5.06853C156.193 4.51638 155.755 4.05882 155.203 4.04655L155.158 6.04605ZM163.588 4.41773C163.037 4.38171 162.561 4.79927 162.525 5.35038C162.489 5.90149 162.906 6.37745 163.457 6.41347L163.588 4.41773ZM171.75 7.09174C172.3 7.14366 172.787 6.74001 172.839 6.19017C172.891 5.64033 172.488 5.15251 171.938 5.10059L171.75 7.09174ZM180.25 5.90833C179.7 5.85641 179.213 6.26005 179.161 6.80989C179.109 7.35973 179.512 7.84755 180.062 7.89947L180.25 5.90833ZM188.412 8.58234C188.963 8.61836 189.439 8.2008 189.475 7.64969C189.511 7.09858 189.094 6.62262 188.543 6.5866L188.412 8.58234ZM196.842 6.95401C196.289 6.94174 195.832 7.37939 195.82 7.93153C195.807 8.48368 196.245 8.94124 196.797 8.95352L196.842 6.95401ZM205.203 8.95352C205.755 8.94124 206.193 8.48368 206.18 7.93153C206.168 7.37939 205.711 6.94174 205.158 6.95401L205.203 8.95352ZM213.457 6.5866C212.906 6.62262 212.489 7.09858 212.525 7.64969C212.561 8.2008 213.037 8.61836 213.588 8.58234L213.457 6.5866ZM221.938 7.89947C222.488 7.84755 222.891 7.35973 222.839 6.80989C222.787 6.26005 222.3 5.85641 221.75 5.90833L221.938 7.89947ZM230.062 5.10059C229.512 5.15251 229.109 5.64033 229.161 6.19017C229.213 6.74001 229.7 7.14366 230.25 7.09174L230.062 5.10059ZM238.543 6.41347C239.094 6.37745 239.511 5.90149 239.475 5.35038C239.439 4.79927 238.963 4.38171 238.412 4.41773L238.543 6.41347ZM246.797 4.04655C246.245 4.05882 245.807 4.51638 245.82 5.06853C245.832 5.62068 246.289 6.05833 246.842 6.04605L246.797 4.04655ZM255.158 6.04605C255.711 6.05833 256.168 5.62068 256.18 5.06853C256.193 4.51638 255.755 4.05882 255.203 4.04655L255.158 6.04605ZM263.588 4.41773C263.037 4.38171 262.561 4.79927 262.525 5.35038C262.489 5.90149 262.906 6.37745 263.457 6.41347L263.588 4.41773ZM271.75 7.09174C272.3 7.14366 272.787 6.74001 272.839 6.19017C272.891 5.64033 272.488 5.15251 271.938 5.10059L271.75 7.09174ZM280.25 5.90833C279.7 5.85641 279.213 6.26005 279.161 6.80989C279.109 7.35973 279.512 7.84755 280.062 7.89947L280.25 5.90833ZM288.412 8.58234C288.963 8.61836 289.439 8.2008 289.475 7.64969C289.511 7.09858 289.094 6.62262 288.543 6.5866L288.412 8.58234ZM296.842 6.95401C296.289 6.94174 295.832 7.37939 295.82 7.93153C295.807 8.48368 296.245 8.94124 296.797 8.95352L296.842 6.95401ZM305.203 8.95352C305.755 8.94124 306.193 8.48368 306.18 7.93153C306.168 7.37939 305.711 6.94174 305.158 6.95401L305.203 8.95352ZM313.457 6.5866C312.906 6.62262 312.489 7.09858 312.525 7.64969C312.561 8.2008 313.037 8.61836 313.588 8.58234L313.457 6.5866ZM321.938 7.89947C322.488 7.84755 322.891 7.35973 322.839 6.80989C322.787 6.26005 322.3 5.85641 321.75 5.90833L321.938 7.89947ZM330.062 5.10059C329.512 5.15251 329.109 5.64033 329.161 6.19017C329.213 6.74001 329.7 7.14366 330.25 7.09174L330.062 5.10059ZM338.543 6.41347C339.094 6.37745 339.511 5.90149 339.475 5.35038C339.439 4.79927 338.963 4.38171 338.412 4.41773L338.543 6.41347ZM346.797 4.04655C346.245 4.05882 345.807 4.51638 345.82 5.06853C345.832 5.62068 346.289 6.05833 346.842 6.04605L346.797 4.04655ZM355.158 6.04605C355.711 6.05833 356.168 5.62068 356.18 5.06853C356.193 4.51638 355.755 4.05882 355.203 4.04655L355.158 6.04605ZM363.588 4.41773C363.037 4.38171 362.561 4.79927 362.525 5.35038C362.489 5.90149 362.906 6.37745 363.457 6.41347L363.588 4.41773ZM371.75 7.09174C372.3 7.14366 372.787 6.74001 372.839 6.19017C372.891 5.64033 372.488 5.15251 371.938 5.10059L371.75 7.09174ZM380.25 5.90833C379.7 5.85641 379.213 6.26005 379.161 6.80989C379.109 7.35973 379.512 7.84755 380.062 7.89947L380.25 5.90833ZM388.412 8.58234C388.963 8.61836 389.439 8.2008 389.475 7.64969C389.511 7.09858 389.094 6.62262 388.543 6.5866L388.412 8.58234ZM396.842 6.95401C396.289 6.94174 395.832 7.37939 395.82 7.93153C395.807 8.48368 396.245 8.94124 396.797 8.95352L396.842 6.95401ZM405.203 8.95352C405.755 8.94124 406.193 8.48368 406.18 7.93153C406.168 7.37939 405.711 6.94174 405.158 6.95401L405.203 8.95352ZM413.457 6.5866C412.906 6.62262 412.489 7.09858 412.525 7.64969C412.561 8.2008 413.037 8.61836 413.588 8.58234L413.457 6.5866ZM421.938 7.89947C422.488 7.84755 422.891 7.35973 422.839 6.80989C422.787 6.26005 422.3 5.85641 421.75 5.90833L421.938 7.89947ZM430.062 5.10059C429.512 5.15251 429.109 5.64033 429.161 6.19017C429.213 6.74001 429.7 7.14366 430.25 7.09174L430.062 5.10059ZM438.543 6.41347C439.094 6.37745 439.511 5.90149 439.475 5.35038C439.439 4.79927 438.963 4.38171 438.412 4.41773L438.543 6.41347ZM446.797 4.04655C446.245 4.05882 445.807 4.51638 445.82 5.06853C445.832 5.62068 446.289 6.05833 446.842 6.04605L446.797 4.04655ZM455.158 6.04605C455.711 6.05833 456.168 5.62068 456.18 5.06853C456.193 4.51638 455.755 4.05882 455.203 4.04655L455.158 6.04605ZM463.588 4.41773C463.037 4.38171 462.561 4.79927 462.525 5.35038C462.489 5.90149 462.906 6.37745 463.457 6.41347L463.588 4.41773ZM471.75 7.09174C472.3 7.14366 472.787 6.74001 472.839 6.19017C472.891 5.64033 472.488 5.15251 471.938 5.10059L471.75 7.09174ZM480.25 5.90833C479.7 5.85641 479.213 6.26005 479.161 6.80989C479.109 7.35973 479.512 7.84755 480.062 7.89947L480.25 5.90833ZM488.412 8.58234C488.963 8.61836 489.439 8.2008 489.475 7.64969C489.511 7.09858 489.094 6.62262 488.543 6.5866L488.412 8.58234ZM496.842 6.95401C496.289 6.94174 495.832 7.37939 495.82 7.93153C495.807 8.48368 496.245 8.94124 496.797 8.95352L496.842 6.95401ZM505.203 8.95352C505.755 8.94124 506.193 8.48368 506.18 7.93153C506.168 7.37939 505.711 6.94174 505.158 6.95401L505.203 8.95352ZM513.457 6.5866C512.906 6.62262 512.489 7.09858 512.525 7.64969C512.561 8.2008 513.037 8.61836 513.588 8.58234L513.457 6.5866ZM521.938 7.89947C522.488 7.84755 522.891 7.35973 522.839 6.80989C522.787 6.26005 522.3 5.85641 521.75 5.90833L521.938 7.89947ZM530.062 5.10059C529.512 5.15251 529.109 5.64033 529.161 6.19017C529.213 6.74001 529.7 7.14366 530.25 7.09174L530.062 5.10059ZM538.543 6.41347C539.094 6.37745 539.511 5.90149 539.475 5.35038C539.439 4.79927 538.963 4.38171 538.412 4.41773L538.543 6.41347ZM546.797 4.04655C546.245 4.05882 545.807 4.51638 545.82 5.06853C545.832 5.62068 546.289 6.05833 546.842 6.04605L546.797 4.04655ZM555.158 6.04605C555.711 6.05833 556.168 5.62068 556.18 5.06853C556.193 4.51638 555.755 4.05882 555.203 4.04655L555.158 6.04605ZM563.588 4.41773C563.037 4.38171 562.561 4.79927 562.525 5.35038C562.489 5.90149 562.906 6.37745 563.457 6.41347L563.588 4.41773ZM571.75 7.09174C572.3 7.14366 572.787 6.74001 572.839 6.19017C572.891 5.64033 572.488 5.15251 571.938 5.10059L571.75 7.09174ZM580.25 5.90833C579.7 5.85641 579.213 6.26005 579.161 6.80989C579.109 7.35973 579.512 7.84755 580.062 7.89947L580.25 5.90833ZM588.412 8.58234C588.963 8.61836 589.439 8.2008 589.475 7.64969C589.511 7.09858 589.094 6.62262 588.543 6.5866L588.412 8.58234ZM596.842 6.95401C596.289 6.94174 595.832 7.37939 595.82 7.93153C595.807 8.48368 596.245 8.94124 596.797 8.95352L596.842 6.95401ZM605.203 8.95352C605.755 8.94124 606.193 8.48368 606.18 7.93153C606.168 7.37939 605.711 6.94174 605.158 6.95401L605.203 8.95352ZM613.457 6.5866C612.906 6.62262 612.489 7.09858 612.525 7.64969C612.561 8.2008 613.037 8.61836 613.588 8.58234L613.457 6.5866ZM621.938 7.89947C622.488 7.84755 622.891 7.35973 622.839 6.80989C622.787 6.26005 622.3 5.85641 621.75 5.90833L621.938 7.89947ZM630.062 5.10059C629.512 5.15251 629.109 5.64033 629.161 6.19017C629.213 6.74001 629.7 7.14366 630.25 7.09174L630.062 5.10059ZM638.543 6.41347C639.094 6.37745 639.511 5.90149 639.475 5.35038C639.439 4.79927 638.963 4.38171 638.412 4.41773L638.543 6.41347ZM646.797 4.04655C646.245 4.05882 645.807 4.51638 645.82 5.06853C645.832 5.62068 646.289 6.05833 646.842 6.04605L646.797 4.04655ZM655.158 6.04605C655.711 6.05833 656.168 5.62068 656.18 5.06853C656.193 4.51638 655.755 4.05882 655.203 4.04655L655.158 6.04605ZM663.588 4.41773C663.037 4.38171 662.561 4.79927 662.525 5.35038C662.489 5.90149 662.906 6.37745 663.457 6.41347L663.588 4.41773ZM671.75 7.09174C672.3 7.14366 672.787 6.74001 672.839 6.19017C672.891 5.64033 672.488 5.15251 671.938 5.10059L671.75 7.09174ZM680.25 5.90833C679.7 5.85641 679.213 6.26005 679.161 6.80989C679.109 7.35973 679.512 7.84755 680.062 7.89947L680.25 5.90833ZM688.412 8.58234C688.963 8.61836 689.439 8.2008 689.475 7.64969C689.511 7.09858 689.094 6.62262 688.543 6.5866L688.412 8.58234ZM696.842 6.95401C696.289 6.94174 695.832 7.37939 695.82 7.93153C695.807 8.48368 696.245 8.94124 696.797 8.95352L696.842 6.95401ZM705.203 8.95352C705.755 8.94124 706.193 8.48368 706.18 7.93153C706.168 7.37939 705.711 6.94174 705.158 6.95401L705.203 8.95352ZM713.457 6.5866C712.906 6.62262 712.489 7.09858 712.525 7.64969C712.561 8.2008 713.037 8.61836 713.588 8.58234L713.457 6.5866ZM721.938 7.89947C722.488 7.84755 722.891 7.35973 722.839 6.80989C722.787 6.26005 722.3 5.85641 721.75 5.90833L721.938 7.89947ZM730.062 5.10059C729.512 5.15251 729.109 5.64033 729.161 6.19017C729.213 6.74001 729.7 7.14366 730.25 7.09174L730.062 5.10059ZM738.543 6.41347C739.094 6.37745 739.511 5.90149 739.475 5.35038C739.439 4.79927 738.963 4.38171 738.412 4.41773L738.543 6.41347ZM746.797 4.04655C746.245 4.05882 745.807 4.51638 745.82 5.06853C745.832 5.62068 746.289 6.05833 746.842 6.04605L746.797 4.04655ZM755.153 6.04038C755.705 6.05054 756.161 5.61114 756.171 5.05895C756.182 4.50676 755.742 4.05088 755.19 4.04072L755.153 6.04038ZM763.563 4.30473C763.011 4.28117 762.545 4.70938 762.521 5.26117C762.497 5.81295 762.926 6.27935 763.477 6.30291L763.563 4.30473ZM771.805 6.72897C772.356 6.76135 772.829 6.34065 772.861 5.78931C772.894 5.23798 772.473 4.76479 771.922 4.73241L771.805 6.72897ZM780.271 5.27469C779.72 5.23574 779.242 5.65077 779.203 6.20168C779.164 6.75259 779.579 7.23076 780.13 7.26971L780.271 5.27469ZM788.445 7.8997C788.996 7.94407 789.478 7.53377 789.522 6.98327C789.567 6.43277 789.156 5.95053 788.606 5.90616L788.445 7.8997ZM796.942 6.6172C796.392 6.56761 795.906 6.97331 795.856 7.52337C795.807 8.07342 796.212 8.55953 796.762 8.60912L796.942 6.6172ZM1 5.00003C1.11669 5.9932 1.11668 5.9932 1.11668 5.9932C1.11669 5.9932 1.1167 5.9932 1.11671 5.9932C1.11675 5.99319 1.1168 5.99319 1.11689 5.99318C1.11705 5.99316 1.1173 5.99313 1.11765 5.99309C1.11834 5.99301 1.11941 5.99288 1.12085 5.99271C1.12373 5.99238 1.12809 5.99187 1.13393 5.99118C1.1456 5.98982 1.16317 5.98777 1.1865 5.98506C1.23318 5.97964 1.30294 5.97157 1.39489 5.96102C1.57878 5.93992 1.85138 5.90891 2.20536 5.86936C2.91334 5.79024 3.94679 5.67696 5.24712 5.54046L5.03833 3.55139C3.73318 3.68839 2.69527 3.80216 1.98325 3.88173C1.62724 3.92151 1.35268 3.95274 1.16692 3.97406C1.07404 3.98471 1.00335 3.99289 0.955782 3.99841C0.931995 4.00118 0.913987 4.00328 0.901871 4.00469C0.895813 4.0054 0.891228 4.00594 0.888131 4.0063C0.886582 4.00648 0.885405 4.00662 0.884602 4.00671C0.8842 4.00676 0.883892 4.0068 0.883677 4.00682C0.88357 4.00683 0.883486 4.00684 0.883426 4.00685C0.883396 4.00685 0.883368 4.00686 0.883353 4.00686C0.883331 4.00686 0.883315 4.00686 1 5.00003ZM13.5536 4.72865C16.0925 4.49827 18.9008 4.25968 21.8619 4.03466L21.7104 2.04041C18.7381 2.26627 15.92 2.5057 13.3728 2.73683L13.5536 4.72865ZM30.1831 3.47364C32.9485 3.31287 35.7496 3.17792 38.5071 3.08356L38.4387 1.08473C35.6627 1.17972 32.8455 1.31548 30.067 1.47701L30.1831 3.47364ZM46.8252 2.93739C48.2507 2.9403 49.6369 2.96023 50.9705 2.9996L51.0295 1.00047C49.6752 0.960492 48.2706 0.940336 46.8292 0.937391L46.8252 2.93739ZM50.9705 2.9996C52.4058 3.04197 53.7928 3.10722 55.1385 3.19197L55.2642 1.19592C53.8966 1.10979 52.4875 1.0435 51.0295 1.00047L50.9705 2.9996ZM63.4344 3.99053C66.2963 4.35743 69.0158 4.79386 71.6935 5.25533L72.0331 3.28438C69.3407 2.82036 66.5901 2.37874 63.6888 2.00676L63.4344 3.99053ZM79.9669 6.71569C82.6593 7.1797 85.4099 7.62133 88.3112 7.9933L88.5656 6.00954C85.7037 5.64263 82.9842 5.2062 80.3065 4.74474L79.9669 6.71569ZM96.7358 8.80414C98.1034 8.89027 99.5125 8.95656 100.97 8.9996L101.03 7.00047C99.5942 6.9581 98.2072 6.89285 96.8616 6.8081L96.7358 8.80414ZM100.97 8.9996C102.419 9.04235 103.82 9.06247 105.181 9.06304L105.182 7.06304C103.84 7.06248 102.458 7.04264 101.03 7.00047L100.97 8.9996ZM113.588 8.81987C116.491 8.65314 119.25 8.41394 121.954 8.14485L121.756 6.15468C119.069 6.42208 116.34 6.65855 113.473 6.82316L113.588 8.81987ZM130.267 7.26102C132.956 6.97536 135.685 6.70319 138.553 6.48524L138.401 4.49099C135.504 4.71116 132.752 4.98572 130.056 5.27222L130.267 7.26102ZM146.845 6.05465C148.188 6.01926 149.57 6.00003 151 6.00003V4.00003C149.552 4.00003 148.152 4.0195 146.792 4.05534L146.845 6.05465ZM151 6.00003C152.431 6.00003 153.815 6.01616 155.158 6.04605L155.203 4.04655C153.844 4.01633 152.446 4.00003 151 4.00003V6.00003ZM163.457 6.41347C166.329 6.60114 169.061 6.83783 171.75 7.09174L171.938 5.10059C169.239 4.84573 166.486 4.60713 163.588 4.41773L163.457 6.41347ZM180.062 7.89947C182.761 8.15433 185.514 8.39293 188.412 8.58234L188.543 6.5866C185.671 6.39893 182.939 6.16224 180.25 5.90833L180.062 7.89947ZM196.797 8.95352C198.156 8.98373 199.554 9.00003 201 9.00003V7.00003C199.569 7.00003 198.185 6.9839 196.842 6.95401L196.797 8.95352ZM201 9.00003C202.446 9.00003 203.844 8.98373 205.203 8.95352L205.158 6.95401C203.815 6.9839 202.431 7.00003 201 7.00003V9.00003ZM213.588 8.58234C216.486 8.39293 219.239 8.15433 221.938 7.89947L221.75 5.90833C219.061 6.16224 216.329 6.39893 213.457 6.5866L213.588 8.58234ZM230.25 7.09174C232.939 6.83783 235.671 6.60114 238.543 6.41347L238.412 4.41773C235.514 4.60713 232.761 4.84573 230.062 5.10059L230.25 7.09174ZM246.842 6.04605C248.185 6.01616 249.569 6.00003 251 6.00003V4.00003C249.554 4.00003 248.156 4.01633 246.797 4.04655L246.842 6.04605ZM251 6.00003C252.431 6.00003 253.815 6.01616 255.158 6.04605L255.203 4.04655C253.844 4.01633 252.446 4.00003 251 4.00003V6.00003ZM263.457 6.41347C266.329 6.60114 269.061 6.83783 271.75 7.09174L271.938 5.10059C269.239 4.84573 266.486 4.60713 263.588 4.41773L263.457 6.41347ZM280.062 7.89947C282.761 8.15433 285.514 8.39293 288.412 8.58234L288.543 6.5866C285.671 6.39893 282.939 6.16224 280.25 5.90833L280.062 7.89947ZM296.797 8.95352C298.156 8.98373 299.554 9.00003 301 9.00003V7.00003C299.569 7.00003 298.185 6.9839 296.842 6.95401L296.797 8.95352ZM301 9.00003C302.446 9.00003 303.844 8.98373 305.203 8.95352L305.158 6.95401C303.815 6.9839 302.431 7.00003 301 7.00003V9.00003ZM313.588 8.58234C316.486 8.39293 319.239 8.15433 321.938 7.89947L321.75 5.90833C319.061 6.16224 316.329 6.39893 313.457 6.5866L313.588 8.58234ZM330.25 7.09174C332.939 6.83783 335.671 6.60114 338.543 6.41347L338.412 4.41773C335.514 4.60713 332.761 4.84573 330.062 5.10059L330.25 7.09174ZM346.842 6.04605C348.185 6.01616 349.569 6.00003 351 6.00003V4.00003C349.554 4.00003 348.156 4.01633 346.797 4.04655L346.842 6.04605ZM351 6.00003C352.431 6.00003 353.815 6.01616 355.158 6.04605L355.203 4.04655C353.844 4.01633 352.446 4.00003 351 4.00003V6.00003ZM363.457 6.41347C366.329 6.60114 369.061 6.83783 371.75 7.09174L371.938 5.10059C369.239 4.84573 366.486 4.60713 363.588 4.41773L363.457 6.41347ZM380.062 7.89947C382.761 8.15433 385.514 8.39293 388.412 8.58234L388.543 6.5866C385.671 6.39893 382.939 6.16224 380.25 5.90833L380.062 7.89947ZM396.797 8.95352C398.156 8.98373 399.554 9.00003 401 9.00003V7.00003C399.569 7.00003 398.185 6.9839 396.842 6.95401L396.797 8.95352ZM401 9.00003C402.446 9.00003 403.844 8.98373 405.203 8.95352L405.158 6.95401C403.815 6.9839 402.431 7.00003 401 7.00003V9.00003ZM413.588 8.58234C416.486 8.39293 419.239 8.15433 421.938 7.89947L421.75 5.90833C419.061 6.16224 416.329 6.39893 413.457 6.5866L413.588 8.58234ZM430.25 7.09174C432.939 6.83783 435.671 6.60114 438.543 6.41347L438.412 4.41773C435.514 4.60713 432.761 4.84573 430.062 5.10059L430.25 7.09174ZM446.842 6.04605C448.185 6.01616 449.569 6.00003 451 6.00003V4.00003C449.554 4.00003 448.156 4.01633 446.797 4.04655L446.842 6.04605ZM451 6.00003C452.431 6.00003 453.815 6.01616 455.158 6.04605L455.203 4.04655C453.844 4.01633 452.446 4.00003 451 4.00003V6.00003ZM463.457 6.41347C466.329 6.60114 469.061 6.83783 471.75 7.09174L471.938 5.10059C469.239 4.84573 466.486 4.60713 463.588 4.41773L463.457 6.41347ZM480.062 7.89947C482.761 8.15433 485.514 8.39293 488.412 8.58234L488.543 6.5866C485.671 6.39893 482.939 6.16224 480.25 5.90833L480.062 7.89947ZM496.797 8.95352C498.156 8.98373 499.554 9.00003 501 9.00003V7.00003C499.569 7.00003 498.185 6.9839 496.842 6.95401L496.797 8.95352ZM501 9.00003C502.446 9.00003 503.844 8.98373 505.203 8.95352L505.158 6.95401C503.815 6.9839 502.431 7.00003 501 7.00003V9.00003ZM513.588 8.58234C516.486 8.39293 519.239 8.15433 521.938 7.89947L521.75 5.90833C519.061 6.16224 516.329 6.39893 513.457 6.5866L513.588 8.58234ZM530.25 7.09174C532.939 6.83783 535.671 6.60114 538.543 6.41347L538.412 4.41773C535.514 4.60713 532.761 4.84573 530.062 5.10059L530.25 7.09174ZM546.842 6.04605C548.185 6.01616 549.569 6.00003 551 6.00003V4.00003C549.554 4.00003 548.156 4.01633 546.797 4.04655L546.842 6.04605ZM551 6.00003C552.431 6.00003 553.815 6.01616 555.158 6.04605L555.203 4.04655C553.844 4.01633 552.446 4.00003 551 4.00003V6.00003ZM563.457 6.41347C566.329 6.60114 569.061 6.83783 571.75 7.09174L571.938 5.10059C569.239 4.84573 566.486 4.60713 563.588 4.41773L563.457 6.41347ZM580.062 7.89947C582.761 8.15433 585.514 8.39293 588.412 8.58234L588.543 6.5866C585.671 6.39893 582.939 6.16224 580.25 5.90833L580.062 7.89947ZM596.797 8.95352C598.156 8.98373 599.554 9.00003 601 9.00003V7.00003C599.569 7.00003 598.185 6.9839 596.842 6.95401L596.797 8.95352ZM601 9.00003C602.446 9.00003 603.844 8.98373 605.203 8.95352L605.158 6.95401C603.815 6.9839 602.431 7.00003 601 7.00003V9.00003ZM613.588 8.58234C616.486 8.39293 619.239 8.15433 621.938 7.89947L621.75 5.90833C619.061 6.16224 616.329 6.39893 613.457 6.5866L613.588 8.58234ZM630.25 7.09174C632.939 6.83783 635.671 6.60114 638.543 6.41347L638.412 4.41773C635.514 4.60713 632.761 4.84573 630.062 5.10059L630.25 7.09174ZM646.842 6.04605C648.185 6.01616 649.569 6.00003 651 6.00003V4.00003C649.554 4.00003 648.156 4.01633 646.797 4.04655L646.842 6.04605ZM651 6.00003C652.431 6.00003 653.815 6.01616 655.158 6.04605L655.203 4.04655C653.844 4.01633 652.446 4.00003 651 4.00003V6.00003ZM663.457 6.41347C666.329 6.60114 669.061 6.83783 671.75 7.09174L671.938 5.10059C669.239 4.84573 666.486 4.60713 663.588 4.41773L663.457 6.41347ZM680.062 7.89947C682.761 8.15433 685.514 8.39293 688.412 8.58234L688.543 6.5866C685.671 6.39893 682.939 6.16224 680.25 5.90833L680.062 7.89947ZM696.797 8.95352C698.156 8.98373 699.554 9.00003 701 9.00003V7.00003C699.569 7.00003 698.185 6.9839 696.842 6.95401L696.797 8.95352ZM701 9.00003C702.446 9.00003 703.844 8.98373 705.203 8.95352L705.158 6.95401C703.815 6.9839 702.431 7.00003 701 7.00003V9.00003ZM713.588 8.58234C716.486 8.39293 719.239 8.15433 721.938 7.89947L721.75 5.90833C719.061 6.16224 716.329 6.39893 713.457 6.5866L713.588 8.58234ZM730.25 7.09174C732.939 6.83783 735.671 6.60114 738.543 6.41347L738.412 4.41773C735.514 4.60713 732.761 4.84573 730.062 5.10059L730.25 7.09174ZM746.842 6.04605C748.185 6.01616 749.569 6.00003 751 6.00003V4.00003C749.554 4.00003 748.156 4.01633 746.797 4.04655L746.842 6.04605ZM751 6.00003C752.337 6.00003 753.726 6.01412 755.153 6.04038L755.19 4.04072C753.752 4.01426 752.351 4.00003 751 4.00003V6.00003ZM763.477 6.30291C766.237 6.42069 769.039 6.56654 771.805 6.72897L771.922 4.73241C769.147 4.56946 766.334 4.42304 763.563 4.30473L763.477 6.30291ZM780.13 7.26971C783.093 7.47925 785.904 7.69488 788.445 7.8997L788.606 5.90616C786.059 5.7009 783.242 5.48476 780.271 5.27469L780.13 7.26971ZM796.762 8.60912C798.065 8.72656 799.101 8.82314 799.81 8.89033C800.165 8.92393 800.438 8.95018 800.622 8.96801C800.715 8.97693 800.785 8.98374 800.832 8.98832C800.855 8.99061 800.873 8.99234 800.884 8.99349C800.89 8.99407 800.895 8.9945 800.898 8.99479C800.899 8.99493 800.9 8.99504 800.901 8.99511C800.901 8.99515 800.902 8.99517 800.902 8.99519C800.902 8.9952 800.902 8.9952 800.902 8.99521C800.902 8.99521 800.902 8.99521 800.902 8.99521C800.902 8.99521 800.902 8.99521 801 8.00003C801.098 7.00485 801.098 7.00485 801.098 7.00485C801.098 7.00485 801.098 7.00485 801.098 7.00485C801.098 7.00484 801.098 7.00483 801.098 7.00482C801.098 7.0048 801.097 7.00477 801.097 7.00473C801.096 7.00466 801.095 7.00454 801.093 7.00439C801.09 7.00409 801.086 7.00364 801.08 7.00305C801.068 7.00187 801.05 7.00011 801.026 6.99779C800.978 6.99315 800.908 6.98628 800.815 6.9773C800.629 6.95934 800.355 6.93297 799.999 6.89924C799.286 6.83179 798.248 6.73493 796.942 6.6172L796.762 8.60912Z" fill="#0657f9"/>
</svg>
